<?xml version="1.0" standalone="no"?>
<!DOCTYPE svg PUBLIC "-//W3C//DTD SVG 20010904//EN"
 "http://www.w3.org/TR/2001/REC-SVG-20010904/DTD/svg10.dtd">
<svg version="1.0" xmlns="http://www.w3.org/2000/svg"
 width="931.000000pt" height="823.000000pt" viewBox="0 0 931.000000 823.000000"
 preserveAspectRatio="xMidYMid meet">
<metadata>
Created by potrace 1.16, written by Peter Selinger 2001-2019
</metadata>
<g transform="translate(0.000000,823.000000) scale(0.100000,-0.100000)"
fill="#000000" stroke="none">
<path d="M0 4115 l0 -4115 4655 0 4655 0 0 4115 0 4115 -4655 0 -4655 0 0
-4115z m1817 868 c21 -56 72 -186 100 -250 7 -17 13 -38 13 -47 0 -9 4 -16 9
-16 5 0 13 -15 16 -32 4 -18 11 -38 15 -43 5 -6 18 -35 29 -65 12 -30 26 -64
31 -75 5 -11 19 -45 31 -75 11 -30 24 -59 29 -65 4 -5 11 -25 15 -42 3 -18 10
-33 15 -33 4 0 11 -16 14 -35 4 -20 18 -57 32 -82 13 -25 24 -50 24 -55 0 -6
6 -24 14 -41 8 -18 26 -63 41 -102 15 -38 30 -74 35 -80 4 -5 11 -24 15 -42 3
-18 17 -55 31 -83 13 -27 24 -54 24 -59 0 -5 12 -17 28 -26 15 -10 34 -24 42
-31 8 -8 30 -26 48 -40 27 -22 32 -33 30 -58 l-3 -31 -237 -3 -238 -2 0 37 c1
32 6 41 33 58 27 17 32 27 35 64 3 40 -22 132 -49 183 -5 10 -19 47 -30 83
l-22 65 -359 0 -359 0 -20 -47 c-12 -27 -27 -62 -35 -80 -8 -17 -14 -36 -14
-42 0 -11 -4 -20 -33 -79 -25 -50 -22 -109 9 -149 16 -21 24 -43 22 -61 l-3
-27 -140 0 -140 0 -3 29 c-3 24 7 39 57 90 57 57 119 165 104 180 -4 3 -1 6 5
6 6 0 14 15 17 33 4 17 11 37 15 42 4 6 11 25 15 43 3 17 11 32 16 32 5 0 9 7
9 16 0 14 30 89 50 126 6 10 10 23 10 29 0 11 16 50 45 114 8 17 17 42 21 58
3 15 10 27 15 27 5 0 9 9 9 21 0 12 6 35 14 52 20 44 77 181 78 187 1 8 19 54
29 72 5 10 9 23 9 28 0 11 32 89 49 120 5 9 12 30 16 48 3 18 11 32 16 32 5 0
9 8 9 18 0 9 6 29 14 44 8 15 17 40 21 57 4 17 11 31 16 31 5 0 9 7 9 15 0 12
19 15 108 15 l108 0 21 -57z m1288 -83 c6 -4 34 -10 64 -14 68 -9 176 -58 219
-99 68 -65 97 -165 94 -314 -1 -35 0 -63 3 -63 7 0 49 24 55 31 3 4 32 21 65
39 55 31 67 34 145 33 59 0 94 -5 115 -16 17 -9 36 -17 42 -17 14 0 10 -33
-15 -122 -9 -33 -22 -58 -30 -58 -7 0 -42 14 -77 30 -102 48 -169 40 -267 -30
l-37 -27 0 -309 c-1 -296 0 -312 21 -353 11 -23 32 -48 44 -53 19 -9 24 -19
24 -50 l0 -38 -200 0 -200 0 0 33 c0 25 7 39 30 55 61 45 61 48 58 427 -2 259
-6 347 -15 357 -7 6 -13 20 -13 30 0 10 -7 21 -15 24 -8 4 -15 12 -15 19 0 7
-7 18 -15 25 -8 7 -15 28 -15 46 l0 33 112 3 113 3 -3 45 c-7 94 -81 183 -182
218 -111 39 -129 42 -239 49 -77 4 -111 3 -111 -5 0 -6 5 -14 10 -17 17 -10
11 -66 -11 -112 -36 -74 -134 -105 -203 -64 -33 19 -76 91 -76 126 0 58 60
138 110 148 37 8 403 -4 415 -13z m4133 -705 c1 -363 0 -670 -3 -682 -5 -22
-7 -21 -38 13 -29 32 -84 56 -127 56 -31 -1 -96 -21 -135 -41 -21 -12 -46 -21
-55 -21 -9 0 -22 -6 -28 -12 -9 -9 -53 -13 -147 -13 -94 0 -138 4 -146 13 -7
6 -20 12 -28 12 -57 0 -236 137 -268 205 -8 17 -25 50 -39 75 -13 25 -24 53
-24 62 0 9 -4 20 -10 23 -6 4 -10 57 -10 125 0 68 4 121 10 125 6 3 10 15 10
26 0 20 37 104 62 143 17 26 132 141 149 150 8 3 34 18 59 32 25 14 64 28 88
31 23 3 45 10 48 14 7 12 191 12 198 0 3 -4 28 -11 56 -15 27 -4 50 -11 50
-15 0 -5 12 -12 26 -15 15 -4 33 -14 41 -21 8 -8 19 -15 24 -15 15 0 11 231
-5 262 -8 15 -17 40 -21 57 -4 17 -10 31 -15 31 -5 0 -15 14 -24 30 l-15 31
157 -3 157 -3 3 -660z m-1574 336 c3 -4 28 -11 55 -15 26 -3 68 -17 92 -31 24
-14 51 -28 59 -31 19 -9 150 -136 150 -146 0 -5 11 -25 23 -46 44 -69 62 -148
62 -264 0 -72 -4 -111 -13 -120 -6 -6 -12 -19 -12 -29 0 -36 -73 -155 -127
-206 -126 -121 -196 -148 -386 -148 -84 0 -130 4 -135 11 -4 6 -23 15 -42 19
-19 4 -42 12 -50 19 -8 6 -31 20 -50 30 -80 44 -193 196 -206 277 -4 22 -11
42 -15 45 -12 7 -12 221 0 228 4 3 11 24 15 46 6 40 12 51 65 135 30 47 101
125 115 125 5 0 17 6 25 14 31 28 117 67 159 73 23 3 45 10 48 14 7 12 161 12
168 0z m-2782 -467 l3 -456 43 -38 c32 -29 42 -45 42 -69 l0 -31 -200 0 -200
0 0 40 c0 27 4 40 13 40 8 0 24 12 38 26 l24 26 3 331 c3 323 -4 437 -29 437
-5 0 -9 6 -9 14 0 7 -9 25 -20 39 -12 14 -20 40 -20 61 l0 36 155 0 154 0 3
-456z m1794 431 c16 -8 37 -15 47 -15 9 0 17 -4 17 -10 0 -5 5 -10 11 -10 19
0 111 -65 145 -102 47 -51 94 -120 88 -130 -3 -4 -44 -8 -91 -8 -66 0 -91 4
-105 17 -10 9 -18 21 -18 28 0 13 -69 82 -102 101 -73 42 -116 56 -172 56 -32
0 -61 -4 -65 -10 -3 -5 -16 -13 -29 -16 -47 -15 -132 -129 -132 -178 0 -8 -5
-19 -12 -26 -15 -15 -17 -241 -2 -274 6 -13 19 -48 29 -78 37 -116 131 -232
229 -284 65 -35 155 -36 216 -3 47 24 104 88 114 127 18 63 26 70 83 70 29 0
53 -2 53 -4 0 -19 -54 -90 -110 -144 -27 -27 -117 -85 -123 -80 -2 2 -10 -2
-18 -9 -46 -38 -258 -55 -349 -28 -74 22 -117 43 -167 82 -23 18 -46 33 -52
33 -6 0 -11 4 -11 9 0 4 -17 28 -38 52 -72 82 -124 222 -124 334 0 44 21 156
31 169 5 6 12 26 16 44 3 17 11 32 16 32 5 0 9 5 9 10 0 52 204 230 263 230 5
0 23 7 40 14 46 21 80 25 188 20 59 -2 108 -10 125 -19z m3302 5 c9 -5 39 -19
66 -31 55 -23 140 -83 171 -120 41 -48 84 -116 91 -145 4 -16 11 -34 15 -40 5
-6 13 -37 18 -70 5 -32 12 -69 16 -81 l7 -23 -402 0 -403 0 7 -47 c4 -27 8
-56 9 -65 1 -10 5 -18 9 -18 4 0 8 -7 8 -16 0 -40 63 -144 129 -211 64 -67
141 -103 218 -103 56 0 71 4 119 35 30 19 59 46 64 60 5 14 14 25 19 25 6 0
13 16 17 35 3 19 10 37 14 40 5 3 11 23 15 45 l7 40 60 0 60 0 -7 -27 c-3 -15
-10 -30 -14 -33 -5 -3 -11 -14 -15 -25 -3 -11 -19 -35 -36 -53 -16 -18 -35
-42 -40 -53 -6 -10 -17 -19 -24 -19 -7 0 -22 -11 -35 -24 -26 -28 -106 -68
-181 -91 -41 -12 -81 -15 -150 -12 -123 5 -164 17 -275 80 -55 31 -152 135
-161 172 -3 14 -10 25 -14 25 -5 0 -11 14 -15 30 -4 17 -10 30 -14 30 -10 0
-33 130 -33 185 0 53 22 175 32 175 4 0 10 14 14 31 6 33 51 103 101 157 33
37 125 102 144 102 6 0 11 5 11 10 0 6 7 10 16 10 9 0 30 7 47 15 18 8 48 16
67 19 53 7 228 -3 248 -14z"/>
<path d="M1600 4816 c-11 -25 -20 -48 -20 -53 0 -11 -42 -119 -79 -205 -12
-26 -21 -51 -21 -56 0 -9 -22 -60 -41 -94 -5 -10 -9 -23 -9 -29 0 -6 -6 -25
-14 -42 -44 -96 -56 -127 -56 -141 0 -9 -4 -16 -10 -16 -5 0 -10 -8 -10 -17 0
-10 -6 -30 -14 -44 -7 -14 -16 -37 -20 -52 l-6 -27 319 0 c178 0 322 4 325 9
3 5 -1 22 -9 37 -8 16 -15 37 -15 47 0 9 -4 17 -10 17 -5 0 -10 8 -10 18 0 9
-6 29 -14 44 -8 15 -17 40 -21 57 -4 17 -11 31 -16 31 -5 0 -9 7 -9 16 0 15
-13 49 -45 119 -8 17 -17 43 -21 59 -4 16 -13 41 -20 55 -8 14 -14 31 -14 38
0 6 -7 24 -15 40 -19 36 -85 210 -85 223 0 25 -21 6 -40 -34z"/>
<path d="M6646 4441 c-3 -4 -18 -11 -33 -14 -36 -8 -113 -83 -142 -139 -12
-25 -27 -71 -32 -104 -6 -32 -13 -74 -16 -92 -3 -19 -1 -44 5 -55 6 -12 13
-47 15 -78 3 -31 10 -65 15 -75 5 -11 26 -54 46 -96 25 -51 56 -96 93 -133 75
-74 129 -100 213 -100 75 0 121 18 166 67 33 35 74 113 74 141 0 9 4 18 9 21
21 13 20 174 -2 286 -26 130 -145 295 -247 342 -25 11 -53 24 -62 29 -23 12
-95 12 -102 0z"/>
<path d="M5535 4440 c-3 -5 -15 -10 -26 -10 -11 0 -32 -8 -47 -17 -77 -48
-129 -141 -142 -254 -10 -83 3 -256 20 -273 6 -6 10 -17 10 -26 0 -24 49 -120
82 -160 57 -68 63 -75 93 -95 71 -47 79 -49 170 -50 93 0 111 7 159 63 6 7 18
21 27 30 19 21 49 85 49 105 0 9 5 17 11 19 14 5 16 252 2 270 -6 7 -14 31
-18 53 -4 22 -10 45 -15 50 -4 6 -11 21 -15 35 -29 94 -190 250 -258 250 -14
0 -29 5 -32 10 -3 6 -19 10 -35 10 -16 0 -32 -4 -35 -10z"/>
<path d="M7775 4421 c-49 -11 -98 -37 -126 -68 -40 -42 -86 -150 -92 -215 l-6
-58 305 0 c347 0 325 -7 276 90 -36 70 -72 122 -109 157 -73 70 -177 109 -248
94z"/>
</g>
</svg>
